<svg xmlns="http://www.w3.org/2000/svg" viewBox="0 0 160 90"><path d="M141.4 64.5c0-5.1 4.2-9.3 9.3-9.3 5.1 0 9.4 4.1 9.4 9.3 0 5.1-4.2 9.4-9.4 9.4-5.1-.1-9.3-4.3-9.3-9.4m-122 9.7c-7.8 0-15.1-1.5-19.4-3.7l3.4-16.2 1.5.1c3.4 15.1 10.2 18 15.6 18 5.7 0 9.3-3.1 9.3-7C29.8 53.7.7 54.2.7 36.4c0-10 8-18 21.2-18 6.4 0 12.3 1.3 17 3.4L34.7 36l-1.5-.1C31.3 25.6 27.9 20.2 21 20.2c-5.8 0-9.1 3-9.1 7.2 0 13 29.5 9.7 29.5 28.9 0 9.3-8.3 17.9-22 17.9zm45.8-5.3c-3.1 3.1-7.6 5-11.4 5-4.5 0-8.9-2.8-8.9-8.1 0-5.4 4.2-10.4 19.7-14.2V43c0-3.9-.9-5-2.8-5-3.4 0-1.6 4.5-3.3 8.2-1.2 2.7-3.6 3.9-6 3.9-3.1 0-5.5-2.1-5.5-5.2 0-4.6 4.8-8.2 15.3-8.2 11.1 0 16.6 5 16.6 12.1v17.7c0 1.2.8 2.1 2 2.1.9 0 1.9-.5 2.8-1.6l.8.6c-1.9 3.7-6.4 6.3-11.5 6.3-3.9 0-6.6-1.5-7.8-5zm-.4-1.6c-.2-1-.3-2.1-.3-3.3V53c-5.2 1.8-7.1 5.3-7.1 9.4 0 4 2.2 5.8 4.7 5.8 1-.1 1.8-.3 2.7-.9zm38.4-.4c0 3.3 2 4.6 3.9 4.9v.7H85.5v-.7c1.6-.2 3.4-1.6 3.4-4.9v-41c0-4.1-1.9-5-4-4.9v-.8l17.7-4.3.6.2v50.8zm24.5-27.1v21.5c0 3.3 1.8 5 3.7 5 1.6 0 2.9-.7 4-2.4l1 .6c-2.7 5.1-7.9 9.4-13.8 9.4-5.5 0-9.2-3.7-9.2-9v-25h-3.8v-.8c6.4-1.9 14.2-9.9 16.9-16.9h1.1V38h7.5v1.7h-7.4z"/></svg>